<?xml version="1.0" standalone="no"?>
<!DOCTYPE svg PUBLIC "-//W3C//DTD SVG 20010904//EN"
 "http://www.w3.org/TR/2001/REC-SVG-20010904/DTD/svg10.dtd">
<svg version="1.0" xmlns="http://www.w3.org/2000/svg"
 width="140.000000pt" height="140.000000pt" viewBox="0 0 140.000000 140.000000"
 preserveAspectRatio="xMidYMid meet">
<metadata>
Created by potrace 1.11, written by Peter Selinger 2001-2013
</metadata>
<g transform="translate(0.000000,140.000000) scale(0.100000,-0.100000)"
fill="#000000" stroke="none">
<path d="M594 1258 c-41 -50 -94 -168 -101 -229 -3 -30 -16 -76 -28 -102 l-21
-48 -24 19 c-59 46 -179 120 -227 140 -28 12 -71 22 -95 22 l-42 0 50 -52 c28
-29 74 -86 103 -126 63 -87 122 -138 173 -154 29 -8 40 -18 44 -37 6 -29 23
-91 30 -106 2 -6 -34 -23 -80 -39 -47 -16 -87 -35 -90 -42 -3 -8 -12 -11 -20
-8 -18 7 -64 -17 -94 -49 -27 -29 -39 -95 -23 -125 7 -14 8 -23 1 -27 -15 -9
-12 -58 6 -83 21 -31 43 -28 137 18 97 47 212 78 321 87 l79 6 -6 -84 c-4 -46
-10 -95 -13 -109 -9 -39 77 61 112 129 15 31 32 59 37 62 5 4 26 0 45 -8 20
-8 48 -12 62 -9 15 3 31 1 36 -3 5 -5 34 -16 64 -26 30 -10 86 -33 123 -51
122 -61 140 -48 135 95 -3 94 -5 101 -32 130 -15 16 -42 35 -60 41 -17 7 -42
18 -56 25 -14 7 -56 22 -93 35 l-69 22 39 42 c22 22 73 82 113 131 41 50 105
122 142 161 74 78 90 109 82 154 -9 43 -23 50 -69 34 -22 -7 -53 -14 -68 -14
-45 0 -81 -25 -195 -130 -59 -55 -133 -114 -165 -131 -53 -28 -66 -31 -127
-27 -168 9 -200 134 -85 326 25 41 45 76 45 78 0 2 -7 4 -15 4 -8 0 -15 6 -15
14 0 7 -10 16 -21 19 -17 5 -20 11 -15 31 8 34 3 33 -30 -6z m726 -203 c21
-25 -3 -60 -135 -199 -193 -204 -281 -252 -447 -244 -105 5 -162 27 -197 77
-20 27 -20 30 -4 33 12 2 -1 13 -37 30 -34 17 -94 65 -159 128 -57 55 -102
100 -98 100 3 0 62 -43 131 -95 132 -100 179 -125 230 -125 29 0 27 2 -29 34
-71 39 -76 54 -47 142 l19 59 1 -58 c2 -97 55 -159 148 -173 106 -16 199 28
333 157 118 113 144 131 189 131 21 0 44 3 52 9 21 13 36 11 50 -6z m-630
-565 c0 -83 1 -90 20 -90 15 0 20 -7 20 -25 0 -23 -3 -25 -50 -25 l-50 0 0
108 c0 60 3 112 7 115 3 4 17 7 30 7 22 0 23 -2 23 -90z m118 -27 l3 -113 -36
0 -35 0 0 108 c0 60 3 112 7 116 4 4 19 6 33 4 25 -3 25 -3 28 -115z m133 78
c27 -27 29 -35 29 -101 0 -93 -9 -110 -60 -110 -65 0 -80 23 -80 124 0 64 4
88 16 100 24 25 62 19 95 -13z m-389 -88 c17 -115 16 -123 -29 -123 -17 0 -23
6 -23 21 0 11 -4 17 -10 14 -5 -3 -10 -14 -10 -23 0 -12 -20 -24 -70 -40 -38
-12 -77 -25 -85 -28 -13 -5 -15 11 -15 109 l0 115 47 16 c58 20 53 20 53 -8 0
-15 -7 -26 -20 -29 -12 -3 -20 -14 -20 -25 0 -15 5 -19 20 -15 16 4 20 0 20
-17 0 -13 -8 -24 -20 -27 -13 -3 -20 -14 -20 -28 0 -18 5 -23 24 -21 22 1 25
7 35 74 6 40 11 84 11 97 0 19 7 27 33 34 63 18 62 20 79 -96z m479 77 c4 0
15 -21 23 -47 l15 -48 0 38 c1 37 6 42 35 31 13 -5 16 -25 16 -120 0 -63 -4
-114 -8 -114 -20 0 -47 31 -58 66 l-12 39 -1 -37 c-1 -38 -6 -43 -35 -32 -13
5 -16 25 -16 121 0 101 2 114 16 109 9 -3 20 -6 25 -6z m-743 -92 c2 -20 -2
-28 -20 -34 -24 -7 -35 -4 -30 9 1 4 -2 7 -8 7 -5 0 -10 -8 -10 -19 0 -13 9
-20 30 -25 36 -7 52 -40 41 -83 -9 -34 -79 -87 -104 -77 -24 9 -22 60 2 74 26
13 31 13 31 -5 0 -8 5 -15 10 -15 6 0 10 9 10 20 0 15 -9 22 -30 27 -40 7 -52
31 -40 74 20 70 111 107 118 47z m943 3 c25 -26 41 -81 23 -81 -18 0 -44 24
-44 40 0 11 -4 20 -10 20 -16 0 -12 -9 30 -72 38 -58 47 -88 34 -122 -19 -50
-123 27 -124 92 0 25 3 26 31 12 11 -6 19 -21 19 -35 0 -14 5 -25 10 -25 20 0
9 36 -25 79 -26 33 -35 53 -35 82 0 37 2 39 31 39 20 0 40 -10 60 -29z"/>
</g>
</svg>
